<svg width="40" height="41" viewBox="0 0 40 41" fill="none" xmlns="http://www.w3.org/2000/svg">
<rect y="0.5" width="40" height="40" rx="8" fill="#2E37A4" fill-opacity="0.05"/>
<g clip-path="url(#clip0_60_33081)">
<g clip-path="url(#clip1_60_33081)">
<path opacity="0.4" d="M12 21.8245V16.7415C12 14.3955 13.904 12.5 16.25 12.5H24.75C27.096 12.5 29 14.3955 29 16.7415V22.6745C29 25.012 27.096 26.9075 24.75 26.9075H23.475C23.2115 26.9075 22.9565 27.035 22.7949 27.2475L21.5199 28.9389C20.9589 29.687 20.0409 29.687 19.48 28.9389L18.205 27.2475C18.069 27.0605 17.763 26.9075 17.525 26.9075H16.25C13.904 26.9075 12 25.012 12 22.6745V21.8245Z" fill="#797979"/>
<path d="M20.9999 20.5C20.44 20.5 20 20.05 20 19.5C20 18.95 20.45 18.5 20.9999 18.5C21.55 18.5 22 18.95 22 19.5C22 20.05 21.56 20.5 20.9999 20.5Z" fill="#797979"/>
<path d="M24 20.5C23.4399 20.5 23 20.05 23 19.5C23 18.95 23.45 18.5 24 18.5C24.55 18.5 25 18.95 25 19.5C25 20.05 24.5601 20.5 24 20.5Z" fill="#797979"/>
<path d="M17 20.5C16.44 20.5 16 20.05 16 19.5C16 18.95 16.45 18.5 17 18.5C17.55 18.5 18 18.95 18 19.5C18 20.05 17.56 20.5 17 20.5Z" fill="#797979"/>
</g>
</g>
<defs>
<clipPath id="clip0_60_33081">
<rect width="21" height="20" fill="white" transform="translate(10 10.5)"/>
</clipPath>
<clipPath id="clip1_60_33081">
<rect width="21" height="20" fill="white" transform="translate(10 10.5)"/>
</clipPath>
</defs>
</svg>
