<svg width="40" height="41" viewBox="0 0 40 41" fill="none" xmlns="http://www.w3.org/2000/svg">
<rect y="0.5" width="40" height="40" rx="8" fill="#2E37A4" fill-opacity="0.05"/>
<g clip-path="url(#clip0_60_33091)">
<g clip-path="url(#clip1_60_33091)">
<path opacity="0.4" d="M20.0013 14.9167V28.2751C19.8596 28.2751 19.7096 28.2501 19.593 28.1834L19.5596 28.1667C17.9596 27.2917 15.168 26.3751 13.3596 26.1334L13.118 26.1001C12.318 26.0001 11.668 25.2501 11.668 24.4501V14.3834C11.668 13.3917 12.4763 12.6417 13.468 12.7251C15.218 12.8667 17.868 13.7501 19.3513 14.6751L19.5596 14.8001C19.6846 14.8751 19.843 14.9167 20.0013 14.9167Z" fill="#797979"/>
<path d="M28.3333 14.3913V24.4496C28.3333 25.2496 27.6833 25.9996 26.8833 26.0996L26.6083 26.133C24.7917 26.3746 21.9917 27.2996 20.3917 28.183C20.2833 28.2496 20.15 28.2746 20 28.2746V14.9163C20.1583 14.9163 20.3167 14.8746 20.4417 14.7996L20.5833 14.708C22.0667 13.7746 24.725 12.883 26.475 12.733H26.525C27.5167 12.6496 28.3333 13.3913 28.3333 14.3913Z" fill="#797979"/>
<path d="M16.457 18.2031H14.582C14.2404 18.2031 13.957 17.9198 13.957 17.5781C13.957 17.2365 14.2404 16.9531 14.582 16.9531H16.457C16.7987 16.9531 17.082 17.2365 17.082 17.5781C17.082 17.9198 16.7987 18.2031 16.457 18.2031Z" fill="#797979"/>
<path d="M17.082 20.7031H14.582C14.2404 20.7031 13.957 20.4198 13.957 20.0781C13.957 19.7365 14.2404 19.4531 14.582 19.4531H17.082C17.4237 19.4531 17.707 19.7365 17.707 20.0781C17.707 20.4198 17.4237 20.7031 17.082 20.7031Z" fill="#797979"/>
</g>
</g>
<defs>
<clipPath id="clip0_60_33091">
<rect width="20" height="20" fill="white" transform="translate(10 10.5)"/>
</clipPath>
<clipPath id="clip1_60_33091">
<rect width="20" height="20" fill="white" transform="translate(10 10.5)"/>
</clipPath>
</defs>
</svg>
