<svg width="40" height="41" viewBox="0 0 40 41" fill="none" xmlns="http://www.w3.org/2000/svg">
<rect y="0.5" width="40" height="40" rx="8" fill="#2E37A4" fill-opacity="0.05"/>
<g clip-path="url(#clip0_60_33033)">
<g clip-path="url(#clip1_60_33033)">
<path d="M27.9817 19.5807V13.9141C27.9817 12.6641 27.4484 12.1641 26.1234 12.1641H22.7567C21.4317 12.1641 20.8984 12.6641 20.8984 13.9141V19.5807C20.8984 20.8307 21.4317 21.3307 22.7567 21.3307H26.1234C27.4484 21.3307 27.9817 20.8307 27.9817 19.5807Z" fill="#797979" fill-opacity="0.75"/>
<path d="M19.2318 21.4141V27.0807C19.2318 28.3307 18.6984 28.8307 17.3734 28.8307H14.0068C12.6818 28.8307 12.1484 28.3307 12.1484 27.0807V21.4141C12.1484 20.1641 12.6818 19.6641 14.0068 19.6641H17.3734C18.6984 19.6641 19.2318 20.1641 19.2318 21.4141Z" fill="#797979" fill-opacity="0.75"/>
<path opacity="0.4" d="M27.9817 27.0833V24.75C27.9817 23.5 27.4484 23 26.1234 23H22.7567C21.4317 23 20.8984 23.5 20.8984 24.75V27.0833C20.8984 28.3333 21.4317 28.8333 22.7567 28.8333H26.1234C27.4484 28.8333 27.9817 28.3333 27.9817 27.0833Z" fill="#3A643B" fill-opacity="0.75"/>
<path opacity="0.4" d="M19.2318 16.2474V13.9141C19.2318 12.6641 18.6984 12.1641 17.3734 12.1641H14.0068C12.6818 12.1641 12.1484 12.6641 12.1484 13.9141V16.2474C12.1484 17.4974 12.6818 17.9974 14.0068 17.9974H17.3734C18.6984 17.9974 19.2318 17.4974 19.2318 16.2474Z" fill="#3A643B" fill-opacity="0.75"/>
</g>
</g>
<defs>
<clipPath id="clip0_60_33033">
<rect width="21" height="20" fill="white" transform="translate(9.5 10.5)"/>
</clipPath>
<clipPath id="clip1_60_33033">
<rect width="21" height="20" fill="white" transform="translate(9.5 10.5)"/>
</clipPath>
</defs>
</svg>
