<svg width="20" height="21" viewBox="0 0 20 21" fill="none" xmlns="http://www.w3.org/2000/svg">
<g clip-path="url(#clip0_60_33006)">
<g clip-path="url(#clip1_60_33006)">
<path opacity="0.4" d="M9.1763 17.1807C13.323 17.1807 16.6846 13.8191 16.6846 9.6724C16.6846 5.52566 13.323 2.16406 9.1763 2.16406C5.02956 2.16406 1.66797 5.52566 1.66797 9.6724C1.66797 13.8191 5.02956 17.1807 9.1763 17.1807Z" fill="#3A643B"/>
<path d="M18.3267 16.2917C18.0517 15.7833 17.4683 15.5 16.685 15.5C16.0933 15.5 15.585 15.7417 15.285 16.1583C14.985 16.575 14.9183 17.1333 15.1017 17.6917C15.46 18.775 16.085 19.0167 16.4267 19.0583C16.4767 19.0667 16.5267 19.0667 16.585 19.0667C16.9517 19.0667 17.5183 18.9083 18.0683 18.0833C18.51 17.4417 18.5933 16.8 18.3267 16.2917Z" fill="#3A643B"/>
</g>
</g>
<defs>
<clipPath id="clip0_60_33006">
<rect width="20" height="20" fill="white" transform="translate(0 0.5)"/>
</clipPath>
<clipPath id="clip1_60_33006">
<rect width="20" height="20" fill="white" transform="translate(0 0.5)"/>
</clipPath>
</defs>
</svg>
