<svg width="18" height="16" viewBox="0 0 18 16" fill="none" xmlns="http://www.w3.org/2000/svg">
<g clip-path="url(#clip0_60_32971)">
<g clip-path="url(#clip1_60_32971)">
<g clip-path="url(#clip2_60_32971)">
<path fill-rule="evenodd" clip-rule="evenodd" d="M17.8633 1.37444C17.8633 1.05239 17.7353 0.743535 17.5076 0.515812C17.2799 0.28809 16.971 0.160156 16.649 0.160156H2.07757C1.75552 0.160156 1.44666 0.28809 1.21894 0.515812C0.991213 0.743535 0.863281 1.05239 0.863281 1.37444C0.863281 1.69649 0.991213 2.00535 1.21894 2.23307C1.44666 2.46079 1.75552 2.58873 2.07757 2.58873H16.649C16.971 2.58873 17.2799 2.46079 17.5076 2.23307C17.7353 2.00535 17.8633 1.69649 17.8633 1.37444Z" fill="#3A643B"/>
<path fill-rule="evenodd" clip-rule="evenodd" d="M17.8633 7.44475C17.8633 7.1227 17.7353 6.81385 17.5076 6.58612C17.2799 6.3584 16.971 6.23047 16.649 6.23047H2.07757C1.75552 6.23047 1.44666 6.3584 1.21894 6.58612C0.991213 6.81385 0.863281 7.1227 0.863281 7.44475C0.863281 7.7668 0.991213 8.07566 1.21894 8.30338C1.44666 8.53111 1.75552 8.65904 2.07757 8.65904H16.649C16.971 8.65904 17.2799 8.53111 17.5076 8.30338C17.7353 8.07566 17.8633 7.7668 17.8633 7.44475Z" fill="#3A643B"/>
<path fill-rule="evenodd" clip-rule="evenodd" d="M17.8627 13.5151C17.8627 13.1931 17.7347 12.8842 17.507 12.6565C17.2793 12.4288 16.9704 12.3008 16.6484 12.3008H9.36272C9.04067 12.3008 8.73182 12.4288 8.50409 12.6565C8.27637 12.8842 8.14844 13.1931 8.14844 13.5151C8.14844 13.8372 8.27637 14.146 8.50409 14.3738C8.73182 14.6015 9.04067 14.7294 9.36272 14.7294H16.6484C16.9704 14.7294 17.2793 14.6015 17.507 14.3738C17.7347 14.146 17.8627 13.8372 17.8627 13.5151Z" fill="#3A643B"/>
</g>
</g>
</g>
<defs>
<clipPath id="clip0_60_32971">
<rect width="18" height="15" fill="white" transform="translate(0 0.0195312)"/>
</clipPath>
<clipPath id="clip1_60_32971">
<rect width="18" height="15" fill="white" transform="translate(0 0.0195312)"/>
</clipPath>
<clipPath id="clip2_60_32971">
<rect width="18" height="15" fill="white" transform="translate(0 0.0195312)"/>
</clipPath>
</defs>
</svg>
