<svg width="25" height="26" viewBox="0 0 25 26" fill="none" xmlns="http://www.w3.org/2000/svg">
<g clip-path="url(#clip0_60_32979)">
<g clip-path="url(#clip1_60_32979)">
<path opacity="0.4" d="M17.75 22.5H7.25001C4.1 22.5 2 20.9118 2 17.2058V9.79411C2 6.08823 4.1 4.5 7.25001 4.5H17.75C20.9 4.5 23 6.08823 23 9.79411V17.2058C23 20.9118 20.9 22.5 17.75 22.5Z" fill="#3A643B"/>
<path d="M13.0036 14.5C12.127 14.5 11.2399 14.219 10.5616 13.6461L7.29503 10.9439C6.96108 10.6628 6.89847 10.1548 7.16981 9.80895C7.44114 9.46306 7.93165 9.39822 8.2656 9.67924L11.5321 12.3814C12.3253 13.0408 13.6715 13.0408 14.4646 12.3814L17.7311 9.67924C18.0651 9.39822 18.5661 9.45226 18.827 9.80895C19.0983 10.1548 19.0461 10.6737 18.7017 10.9439L15.4352 13.6461C14.7673 14.219 13.8802 14.5 13.0036 14.5Z" fill="#3A643B"/>
</g>
</g>
<defs>
<clipPath id="clip0_60_32979">
<rect width="25" height="25" fill="white" transform="translate(0 0.5)"/>
</clipPath>
<clipPath id="clip1_60_32979">
<rect width="25" height="25" fill="white" transform="translate(0 0.5)"/>
</clipPath>
</defs>
</svg>
