<svg width="40" height="41" viewBox="0 0 40 41" fill="none" xmlns="http://www.w3.org/2000/svg">
<rect y="0.5" width="40" height="40" rx="8" fill="#2E37A4" fill-opacity="0.05"/>
<g clip-path="url(#clip0_60_33043)">
<g clip-path="url(#clip1_60_33043)">
<path opacity="0.4" d="M24.9053 16.7987C24.8441 16.79 24.7828 16.79 24.7216 16.7987C23.3653 16.755 22.2891 15.6437 22.2891 14.2787C22.2891 12.8875 23.4178 11.75 24.8178 11.75C26.2091 11.75 27.3466 12.8787 27.3466 14.2787C27.3378 15.6437 26.2616 16.755 24.9053 16.7987Z" fill="#797979"/>
<path opacity="0.4" d="M27.7561 22.8638C26.7761 23.5201 25.4023 23.7651 24.1336 23.5988C24.4661 22.8813 24.6411 22.0851 24.6498 21.2451C24.6498 20.3701 24.4573 19.5388 24.0898 18.8126C25.3848 18.6376 26.7586 18.8826 27.7473 19.5388C29.1298 20.4488 29.1298 21.9451 27.7561 22.8638Z" fill="#797979"/>
<path opacity="0.4" d="M15.203 16.7987C15.2642 16.79 15.3255 16.79 15.3867 16.7987C16.743 16.755 17.8192 15.6437 17.8192 14.2787C17.8192 12.8875 16.6905 11.75 15.2905 11.75C13.8992 11.75 12.7617 12.8787 12.7617 14.2787C12.7705 15.6437 13.8467 16.755 15.203 16.7987Z" fill="#797979"/>
<path opacity="0.4" d="M15.2981 21.2452C15.2981 22.094 15.4819 22.899 15.8144 23.6252C14.5806 23.7565 13.2944 23.494 12.3494 22.8727C10.9669 21.954 10.9669 20.4577 12.3494 19.539C13.2856 18.909 14.6069 18.6552 15.8494 18.7952C15.4906 19.5302 15.2981 20.3615 15.2981 21.2452Z" fill="#797979"/>
<path d="M20.1706 23.8862C20.1006 23.8775 20.0219 23.8775 19.9431 23.8862C18.3331 23.8337 17.0469 22.5125 17.0469 20.885C17.0469 19.2225 18.3856 17.875 20.0569 17.875C21.7194 17.875 23.0669 19.2225 23.0669 20.885C23.0669 22.5125 21.7894 23.8337 20.1706 23.8862Z" fill="#797979"/>
<path d="M17.3269 25.7C16.0056 26.5837 16.0056 28.0362 17.3269 28.9112C18.8319 29.9175 21.2993 29.9175 22.8043 28.9112C24.1256 28.0275 24.1256 26.575 22.8043 25.7C21.3081 24.6937 18.8406 24.6937 17.3269 25.7Z" fill="#797979"/>
</g>
</g>
<defs>
<clipPath id="clip0_60_33043">
<rect width="22" height="21" fill="white" transform="translate(9 10)"/>
</clipPath>
<clipPath id="clip1_60_33043">
<rect width="22" height="21" fill="white" transform="translate(9 10)"/>
</clipPath>
</defs>
</svg>
