<svg width="40" height="41" viewBox="0 0 40 41" fill="none" xmlns="http://www.w3.org/2000/svg">
<rect y="0.5" width="40" height="40" rx="8" fill="#2E37A4" fill-opacity="0.05"/>
<g clip-path="url(#clip0_60_33055)">
<g clip-path="url(#clip1_60_33055)">
<g clip-path="url(#clip2_60_33055)">
<path d="M24.4746 13.4549V12.1347C24.4746 11.7877 24.1901 11.5 23.847 11.5C23.5038 11.5 23.2193 11.7877 23.2193 12.1347V13.4041H17.7796V12.1347C17.7796 11.7877 17.495 11.5 17.1519 11.5C16.8088 11.5 16.5243 11.7877 16.5243 12.1347V13.4549C14.2647 13.6664 13.1684 15.0289 13.001 17.0515C12.9842 17.2969 13.1851 17.5 13.4194 17.5H27.5795C27.8221 17.5 28.023 17.2884 27.9979 17.0515C27.8306 15.0289 26.7342 13.6664 24.4746 13.4549Z" fill="#797979"/>
<path opacity="0.4" d="M28 19.3306V20.7615C28 21.2632 27.55 21.6497 27.05 21.5675C26.8166 21.5345 26.575 21.5099 26.3333 21.5099C23.8083 21.5099 21.75 23.5411 21.75 26.0329C21.75 26.4112 21.9 26.9375 22.0583 27.4146C22.2416 27.949 21.8416 28.5 21.2666 28.5H17.1667C14.25 28.5 13 26.8553 13 24.3882V19.3224C13 18.8701 13.375 18.5 13.8333 18.5H27.1666C27.625 18.5082 28 18.8783 28 19.3306Z" fill="#797979"/>
<path d="M26.5 23.5C24.5662 23.5 23 25.0663 23 26.9999C23 27.6562 23.1838 28.2775 23.5075 28.8025C24.1112 29.8175 25.2225 30.5 26.5 30.5C27.7775 30.5 28.8888 29.8175 29.4925 28.8025C29.8162 28.2775 30 27.6562 30 26.9999C30 25.0663 28.4338 23.5 26.5 23.5ZM28.3113 26.6237L26.4475 28.3475C26.325 28.4612 26.1587 28.5224 26.0012 28.5224C25.835 28.5224 25.6687 28.4612 25.5375 28.33L24.6712 27.4637C24.4175 27.2099 24.4175 26.7899 24.6712 26.5363C24.925 26.2825 25.345 26.2825 25.5988 26.5363L26.0187 26.9563L27.4188 25.6612C27.6813 25.4162 28.1013 25.4338 28.3462 25.6963C28.5913 25.9588 28.5738 26.37 28.3113 26.6237Z" fill="#797979"/>
<path d="M18 23.5C17.74 23.5 17.48 23.3901 17.29 23.2102C17.11 23.0202 17 22.7604 17 22.5005C17 22.2405 17.11 21.9807 17.29 21.7909C17.52 21.5609 17.87 21.4509 18.2 21.5208C18.26 21.5309 18.32 21.5508 18.38 21.5808C18.44 21.6009 18.5 21.6308 18.56 21.6709C18.61 21.7108 18.66 21.7508 18.71 21.7909C18.89 21.9807 19 22.2405 19 22.5005C19 22.7604 18.89 23.0202 18.71 23.2102C18.66 23.2501 18.61 23.2901 18.56 23.3302C18.5 23.3701 18.44 23.4001 18.38 23.4201C18.32 23.4501 18.26 23.4701 18.2 23.4801C18.13 23.49 18.06 23.5 18 23.5Z" fill="#797979"/>
<path d="M20.9999 23.5C20.74 23.5 20.48 23.3893 20.29 23.2081C20.11 23.017 20 22.7553 20 22.4937C20 22.2321 20.11 21.9704 20.29 21.7792C20.6699 21.4069 21.34 21.4069 21.71 21.7792C21.89 21.9704 22 22.2321 22 22.4937C22 22.7553 21.89 23.017 21.71 23.2081C21.52 23.3893 21.26 23.5 20.9999 23.5Z" fill="#797979"/>
<path d="M18 26.5C17.74 26.5 17.48 26.39 17.29 26.2099C17.11 26.0197 17 25.7597 17 25.4995C17 25.2393 17.11 24.9792 17.29 24.7891C17.39 24.6991 17.49 24.629 17.62 24.5789C17.99 24.4189 18.43 24.5089 18.71 24.7891C18.89 24.9792 19 25.2393 19 25.4995C19 25.7597 18.89 26.0197 18.71 26.2099C18.52 26.39 18.26 26.5 18 26.5Z" fill="#797979"/>
</g>
</g>
</g>
<defs>
<clipPath id="clip0_60_33055">
<rect width="21" height="20" fill="white" transform="translate(10 10.5)"/>
</clipPath>
<clipPath id="clip1_60_33055">
<rect width="21" height="20" fill="white" transform="translate(10 10.5)"/>
</clipPath>
<clipPath id="clip2_60_33055">
<rect width="21" height="20" fill="white" transform="translate(10 10.5)"/>
</clipPath>
</defs>
</svg>
