<svg width="40" height="41" viewBox="0 0 40 41" fill="none" xmlns="http://www.w3.org/2000/svg">
<rect y="0.5" width="40" height="40" rx="8" fill="#2E37A4" fill-opacity="0.05"/>
<g clip-path="url(#clip0_60_33102)">
<g clip-path="url(#clip1_60_33102)">
<path opacity="0.4" d="M26.2984 21.2943H27.9817V20.0943C27.9817 18.3693 26.5734 16.9609 24.8484 16.9609H15.2818C13.5568 16.9609 12.1484 18.3693 12.1484 20.0943V23.1359C12.8068 22.5359 13.6901 22.1693 14.6484 22.1693C16.7234 22.1693 18.3984 23.8526 18.3984 25.9193C18.3984 26.3609 18.3234 26.7776 18.1818 27.1693C17.9568 27.8276 17.5401 28.3943 17.0151 28.8359H24.8484C26.5734 28.8359 27.9817 27.4276 27.9817 25.7026V24.7109H26.3984C25.4984 24.7109 24.6734 24.0526 24.5984 23.1526C24.5484 22.6276 24.7484 22.1359 25.0984 21.7943C25.4067 21.4776 25.8317 21.2943 26.2984 21.2943Z" fill="#797979"/>
<path d="M14.6484 22.1641C13.6901 22.1641 12.8068 22.5307 12.1484 23.1307C11.9984 23.264 11.8568 23.4057 11.7318 23.5641C11.2068 24.2057 10.8984 25.0224 10.8984 25.9141C10.8984 27.9891 12.5818 29.6641 14.6484 29.6641C15.5484 29.6641 16.3651 29.3474 17.0151 28.8307C17.5401 28.3891 17.9568 27.8224 18.1818 27.1641C18.3234 26.7724 18.3984 26.3557 18.3984 25.9141C18.3984 23.8474 16.7234 22.1641 14.6484 22.1641ZM16.8984 25.1891C16.8984 25.4474 16.6901 25.6474 16.4401 25.6474C16.1901 25.6474 15.9818 25.4474 15.9818 25.1891V25.0974C15.9818 24.9974 15.9068 24.9141 15.8068 24.9141H13.9234C14.0151 25.0891 13.9984 25.3057 13.8484 25.4557C13.7651 25.5391 13.6484 25.5891 13.5234 25.5891C13.4068 25.5891 13.2901 25.5391 13.2068 25.4557L12.5318 24.7807C12.4901 24.7391 12.4568 24.6891 12.4318 24.6307C12.3901 24.5224 12.3901 24.3974 12.4318 24.2807C12.4568 24.2307 12.4901 24.1724 12.5318 24.1307L13.2068 23.4641C13.3818 23.2807 13.6734 23.2807 13.8484 23.4641C13.9984 23.6057 14.0151 23.8307 13.9234 23.9974H15.8068C16.4068 23.9974 16.8984 24.4891 16.8984 25.0974V25.1891ZM15.7734 28.4974C15.6484 28.4974 15.5318 28.4557 15.4484 28.3641C15.2984 28.2224 15.2818 27.9974 15.3734 27.8307H13.4901C12.8901 27.8307 12.3984 27.339 12.3984 26.7307V26.6391C12.3984 26.3807 12.6068 26.1807 12.8568 26.1807C13.1068 26.1807 13.3151 26.3807 13.3151 26.6391V26.7307C13.3151 26.8307 13.3901 26.9141 13.4901 26.9141H15.3734C15.2818 26.7391 15.2984 26.5224 15.4484 26.3724C15.6234 26.1974 15.9151 26.1974 16.0901 26.3724L16.7651 27.0474C16.8068 27.0891 16.8401 27.139 16.8651 27.1974C16.9068 27.3057 16.9068 27.4307 16.8651 27.5474C16.8401 27.5974 16.8068 27.6557 16.7651 27.6974L16.0901 28.3641C16.0068 28.4557 15.8901 28.4974 15.7734 28.4974Z" fill="#797979"/>
<path d="M22.4401 13.7949V16.9616H15.2818C13.5568 16.9616 12.1484 18.3699 12.1484 20.0949V17.0366C12.1484 16.045 12.7568 15.1616 13.6818 14.8116L20.2984 12.3116C21.3317 11.9282 22.4401 12.6866 22.4401 13.7949Z" fill="#797979"/>
<path d="M28.8681 22.139V23.8557C28.8681 24.3141 28.5014 24.689 28.0347 24.7057H26.4014C25.5014 24.7057 24.6764 24.0474 24.6014 23.1474C24.5514 22.6224 24.7514 22.1307 25.1014 21.789C25.4097 21.4724 25.8347 21.2891 26.3014 21.2891H28.0347C28.5014 21.3057 28.8681 21.6807 28.8681 22.139Z" fill="#797979"/>
<path d="M21.7317 21.125H15.8984C15.5568 21.125 15.2734 20.8417 15.2734 20.5C15.2734 20.1583 15.5568 19.875 15.8984 19.875H21.7317C22.0734 19.875 22.3567 20.1583 22.3567 20.5C22.3567 20.8417 22.0734 21.125 21.7317 21.125Z" fill="#797979"/>
</g>
</g>
<defs>
<clipPath id="clip0_60_33102">
<rect width="21" height="20" fill="white" transform="translate(9.5 10.5)"/>
</clipPath>
<clipPath id="clip1_60_33102">
<rect width="21" height="20" fill="white" transform="translate(9.5 10.5)"/>
</clipPath>
</defs>
</svg>
